<svg width="232" height="40" viewBox="0 0 232 40" fill="none" xmlns="http://www.w3.org/2000/svg">
<g clip-path="url(#clip0_2847_4483)">
<path d="M18.5572 18.0073C10.3747 14.9681 8.2982 8.59756 9.82665 3.96435C10.0514 3.28505 10.3349 2.62773 10.674 2.00028C10.7273 1.89766 10.7476 1.78034 10.7317 1.66519C10.7159 1.55004 10.6649 1.44301 10.5859 1.3595C10.5082 1.27762 10.4056 1.2253 10.295 1.21115C10.1844 1.197 10.0724 1.22187 9.97741 1.28166C3.82726 5.03268 6.37251e-05 11.9639 6.37251e-05 19.3667C-0.0102529 23.6089 1.23231 27.7549 3.56427 31.2594C5.72215 34.505 8.87261 37.0816 12.6811 38.6949C14.73 39.5635 16.7108 39.9978 18.7069 39.9978C19.2215 39.9974 19.7358 39.9688 20.2475 39.9121C25.6647 39.3142 28.4036 36.055 28.4036 30.2249C28.4036 26.0508 24.7239 20.3391 18.5561 18.005M24.6084 30.2249C24.6084 34.0605 23.3638 35.5564 19.8469 35.9479C16.9253 36.2683 14.477 35.5282 10.8115 33.2077C10.3447 32.9225 9.90285 32.5964 9.49103 32.233C6.57125 29.6093 4.63372 26.0252 4.01122 22.0963C3.38873 18.1674 4.12012 14.1388 6.07979 10.7026C7.5004 15.5773 11.6049 19.6566 17.2797 21.7583C21.6615 23.4234 24.604 27.4802 24.604 30.2271" fill="#EB7324"/>
<path d="M39.4015 12.996C38.7769 10.9438 37.8463 9.00302 36.6428 7.24259C35.3673 5.41541 33.754 3.86302 31.8945 2.67368C30.2175 1.6155 28.9531 0.967951 27.0384 0.533622C25.4589 0.176878 23.846 -0.00204987 22.2286 1.77147e-05C16.3249 1.77147e-05 13.6807 3.32348 13.6807 6.62664C13.6807 10.8537 16.6694 12.7682 23.3642 15.4734C31.9011 18.8115 35.5435 23.1605 35.5435 30.0138C35.5448 30.5058 35.5221 30.9975 35.4752 31.4872C35.4646 31.6022 35.4904 31.7177 35.5489 31.8164C35.6074 31.9152 35.6954 31.992 35.7998 32.0354C35.8585 32.0573 35.9202 32.0691 35.9825 32.0704C36.0617 32.0694 36.1395 32.0496 36.2099 32.0126C36.2804 31.9757 36.3415 31.9225 36.3886 31.8572C38.9806 28.236 40.3721 23.8582 40.3588 19.3666C40.3546 17.2055 40.0307 15.0576 39.3982 12.996M36.5646 19.388C36.5673 19.441 36.5528 19.4935 36.5233 19.5372C36.4939 19.5809 36.4511 19.6133 36.4018 19.6294C36.3485 19.6526 36.2891 19.6561 36.2337 19.6392C36.1783 19.6223 36.1303 19.5861 36.0981 19.5369C33.7135 16.3579 29.9809 13.8083 24.6781 11.7325C18.4773 9.22697 17.476 8.1733 17.476 6.62212C17.476 4.96378 19.2476 3.98118 22.2231 3.98118C23.5738 3.98093 24.9206 4.1288 26.2407 4.42228C27.1251 4.61599 27.9775 4.93973 28.7716 5.38344C31.1737 6.67438 33.1588 8.65225 34.486 11.0771C35.8492 13.6151 36.5657 16.4647 36.569 19.3621L36.5646 19.388Z" fill="#EB7324"/>
<path fill-rule="evenodd" clip-rule="evenodd" d="M227.316 30.7809H215.197V9.09375H220.706V26.0608H227.316V30.7809Z" fill="#424243"/>
<path fill-rule="evenodd" clip-rule="evenodd" d="M212.374 30.7809H200.255V9.09375H205.764V26.0608H212.374V30.7809Z" fill="#424243"/>
<path fill-rule="evenodd" clip-rule="evenodd" d="M190.231 9.09277H184.225L176.082 30.781H181.897L183.356 26.9995H190.959L192.326 30.781H198.205L190.231 9.09277ZM184.875 22.7093L187.186 15.7984L189.465 22.7093H184.875Z" fill="#424243"/>
<path fill-rule="evenodd" clip-rule="evenodd" d="M174.504 21.3284C173.883 20.2985 172.725 19.6069 171.031 19.2437C171.786 18.7924 172.344 18.2374 172.706 17.5943C173.146 16.8329 173.356 15.8818 173.356 14.7492C173.356 10.979 171.37 9.09353 167.397 9.09277H159.204V30.781H168.032C170.699 30.781 172.684 30.0444 173.987 28.571C174.888 27.5572 175.338 26.2388 175.338 24.6158C175.338 23.3647 175.058 22.2716 174.5 21.3284M164.706 13.383H165.721C166.141 13.3682 166.56 13.4215 166.964 13.541C167.83 13.8602 168.266 14.5123 168.266 15.4949C168.281 16.0146 168.104 16.5209 167.77 16.9118C167.357 17.3856 166.669 17.6259 165.721 17.6259H164.713L164.706 13.383ZM168.879 25.982C168.326 26.3197 167.347 26.4885 165.941 26.4885H164.713V21.9162H165.844C166.83 21.9162 167.523 21.9478 167.923 22.011C169.198 22.2321 169.834 22.9729 169.833 24.2334C169.833 25.0185 169.517 25.6014 168.885 25.982" fill="#424243"/>
<path fill-rule="evenodd" clip-rule="evenodd" d="M155.714 30.7809H143.658V9.09375H155.714V13.8104H149.166V17.4825H155.358V22.2003H149.166V26.0608H155.714V30.7809Z" fill="#424243"/>
<path fill-rule="evenodd" clip-rule="evenodd" d="M141.607 30.7809H134.469L127.316 21.3745V30.7809H121.808V9.09375H127.316V18.0387L134.035 9.09375H140.831L132.421 19.3574L141.607 30.7809Z" fill="#424243"/>
<path fill-rule="evenodd" clip-rule="evenodd" d="M116.601 12.238C114.417 9.70878 111.465 8.4434 107.742 8.4419C104.02 8.44039 101.067 9.70577 98.883 12.238C97.9778 13.3069 97.273 14.538 96.8043 15.8695C96.3027 17.1899 96.0391 18.5927 96.0264 20.0097C96.0264 22.9541 96.9837 25.5383 98.8984 27.7622C101.082 30.2915 104.03 31.5568 107.742 31.5583C111.455 31.5599 114.408 30.2945 116.601 27.7622C118.515 25.5398 119.473 22.9556 119.473 20.0097C119.473 17.0638 118.515 14.4732 116.601 12.238ZM112.319 23.9491C111.13 25.3683 109.605 26.0775 107.742 26.0768C105.88 26.076 104.359 25.3615 103.18 23.9333C102.226 22.7774 101.75 21.4695 101.75 20.0097C101.751 19.2927 101.877 18.5817 102.123 17.9103C102.534 16.7318 103.3 15.7174 104.309 15.0132C105.314 14.2924 106.514 13.9114 107.74 13.9235C109.569 13.9235 111.095 14.6327 112.317 16.0511C113.239 17.1492 113.747 18.5503 113.747 19.9996C113.747 21.4488 113.239 22.8499 112.317 23.948" fill="#424243"/>
<path fill-rule="evenodd" clip-rule="evenodd" d="M95.0219 30.7809H89.5133L87.9463 18.2925L82.8262 30.7809H80.6386L75.7506 18.2925L73.9503 30.7809H68.4736L72.073 9.09375H77.5046L81.8028 20.6593L86.3486 9.09375H91.8264L95.0219 30.7809Z" fill="#424243"/>
<path fill-rule="evenodd" clip-rule="evenodd" d="M66.7137 23.5993C66.7137 27.2634 65.1416 29.6521 61.9974 30.7651C60.8587 31.1634 59.6627 31.3621 58.4596 31.3529C55.8106 31.3529 53.353 30.532 51.0869 28.8902L53.4473 24.345C55.1023 25.8702 56.7213 26.6328 58.3044 26.6328C59.0197 26.6328 59.6249 26.4632 60.1201 26.124C60.3928 25.9581 60.6171 25.7204 60.7698 25.4355C60.9225 25.1506 60.9979 24.829 60.9883 24.504C60.9883 23.8678 60.6677 23.3379 60.0266 22.9145C59.5497 22.5971 58.7479 22.2741 57.6211 21.9454C56.2566 21.5325 55.3983 21.2468 55.0462 21.0881C54.5327 20.8716 54.0512 20.5826 53.6156 20.2296C52.4888 19.2767 51.9251 17.8364 51.9243 15.9088C51.9243 13.8963 52.509 12.2278 53.6784 10.9033C55.0443 9.34652 56.8648 8.56812 59.1397 8.56812C61.4263 8.56812 63.666 9.15587 65.8587 10.3314L63.6579 14.7164C62.4585 13.7643 61.248 13.2886 60.0266 13.2893C59.4665 13.2807 58.9163 13.4407 58.4442 13.7496C57.916 14.0993 57.6523 14.5656 57.653 15.1485C57.6537 15.7313 58 16.2236 58.6918 16.6252C59.0021 16.8155 59.9334 17.1438 61.4857 17.6101C63.4298 18.1922 64.8155 19.0195 65.643 20.0919C66.3583 21.002 66.7152 22.1722 66.7137 23.6027" fill="#424243"/>
<path d="M231.02 28.8664C230.972 28.6509 230.887 28.5347 230.736 28.4761H230.725V28.4287H230.737C230.935 28.3678 231.059 28.2268 231.059 28.0621C231.061 27.9961 231.048 27.9304 231.022 27.87C230.996 27.8096 230.957 27.7561 230.908 27.7135C230.739 27.6223 230.548 27.5831 230.358 27.6007C230.156 27.5975 229.954 27.6134 229.756 27.648V29.2669H230.097V28.6036H230.289C230.5 28.6036 230.607 28.6882 230.638 28.8788C230.647 28.9127 230.656 28.9465 230.663 28.9804C230.681 29.0801 230.713 29.1767 230.758 29.2669H231.125C231.072 29.1388 231.037 29.0041 231.02 28.8664ZM230.299 28.3576H230.108V27.8556H230.12C230.189 27.8396 230.259 27.8324 230.33 27.8342C230.558 27.8342 230.689 27.9323 230.689 28.1027C230.689 28.273 230.547 28.3576 230.299 28.3576ZM231.02 28.8664C230.972 28.6509 230.887 28.5347 230.736 28.4761H230.725V28.4287H230.737C230.935 28.3678 231.059 28.2268 231.059 28.0621C231.061 27.9961 231.048 27.9304 231.022 27.87C230.996 27.8096 230.957 27.7561 230.908 27.7135C230.739 27.6223 230.548 27.5831 230.358 27.6007C230.156 27.5975 229.954 27.6134 229.756 27.648V29.2669H230.097V28.6036H230.289C230.5 28.6036 230.607 28.6882 230.638 28.8788C230.647 28.9127 230.656 28.9465 230.663 28.9804C230.681 29.0801 230.713 29.1767 230.758 29.2669H231.125C231.072 29.1388 231.037 29.0041 231.02 28.8664ZM230.299 28.3576H230.108V27.8556H230.12C230.189 27.8396 230.259 27.8324 230.33 27.8342C230.558 27.8342 230.689 27.9323 230.689 28.1027C230.689 28.273 230.547 28.3576 230.299 28.3576ZM231.02 28.8664C230.972 28.6509 230.887 28.5347 230.736 28.4761H230.725V28.4287H230.737C230.935 28.3678 231.059 28.2268 231.059 28.0621C231.061 27.9961 231.048 27.9304 231.022 27.87C230.996 27.8096 230.957 27.7561 230.908 27.7135C230.739 27.6223 230.548 27.5831 230.358 27.6007C230.156 27.5975 229.954 27.6134 229.756 27.648V29.2669H230.097V28.6036H230.289C230.5 28.6036 230.607 28.6882 230.638 28.8788C230.647 28.9127 230.656 28.9465 230.663 28.9804C230.681 29.0801 230.713 29.1767 230.758 29.2669H231.125C231.072 29.1388 231.037 29.0041 231.02 28.8664ZM230.299 28.3576H230.108V27.8556H230.12C230.189 27.8396 230.259 27.8324 230.33 27.8342C230.558 27.8342 230.689 27.9323 230.689 28.1027C230.689 28.273 230.547 28.3576 230.299 28.3576ZM231.02 28.8664C230.972 28.6509 230.887 28.5347 230.736 28.4761H230.725V28.4287H230.737C230.935 28.3678 231.059 28.2268 231.059 28.0621C231.061 27.9961 231.048 27.9304 231.022 27.87C230.996 27.8096 230.957 27.7561 230.908 27.7135C230.739 27.6223 230.548 27.5831 230.358 27.6007C230.156 27.5975 229.954 27.6134 229.756 27.648V29.2669H230.097V28.6036H230.289C230.5 28.6036 230.607 28.6882 230.638 28.8788C230.647 28.9127 230.656 28.9465 230.663 28.9804C230.681 29.0801 230.713 29.1767 230.758 29.2669H231.125C231.072 29.1388 231.037 29.0041 231.02 28.8664ZM230.299 28.3576H230.108V27.8556H230.12C230.189 27.8396 230.259 27.8324 230.33 27.8342C230.558 27.8342 230.689 27.9323 230.689 28.1027C230.689 28.273 230.547 28.3576 230.299 28.3576ZM230.369 26.7783C230.052 26.7841 229.745 26.8856 229.485 27.0702C229.225 27.2548 229.024 27.5142 228.907 27.8156C228.79 28.1171 228.763 28.4472 228.829 28.7644C228.895 29.0815 229.051 29.3716 229.278 29.5981C229.504 29.8246 229.791 29.9774 230.102 30.0372C230.413 30.097 230.734 30.0611 231.025 29.9342C231.316 29.8073 231.564 29.5949 231.737 29.3238C231.911 29.0527 232.003 28.735 232 28.4107C232 28.193 231.957 27.9775 231.875 27.777C231.792 27.5765 231.671 27.3949 231.519 27.2428C231.367 27.0908 231.187 26.9714 230.99 26.8916C230.792 26.8118 230.581 26.7733 230.369 26.7783ZM230.379 29.7452C230.208 29.7459 230.038 29.7121 229.88 29.6457C229.722 29.5793 229.579 29.4816 229.457 29.3583C229.336 29.2349 229.24 29.0883 229.174 28.9268C229.108 28.7652 229.074 28.592 229.073 28.4169C229.072 28.2418 229.105 28.0682 229.17 27.9062C229.235 27.7442 229.33 27.5968 229.45 27.4725C229.571 27.3482 229.714 27.2494 229.871 27.1818C230.029 27.1142 230.198 27.079 230.369 27.0783C231.082 27.0783 231.621 27.6548 231.621 28.4208C231.626 28.5919 231.597 28.7622 231.537 28.9219C231.477 29.0815 231.387 29.2273 231.271 29.3507C231.155 29.474 231.017 29.5724 230.864 29.6402C230.71 29.7079 230.545 29.7437 230.379 29.7452ZM230.736 28.4761H230.725V28.4287H230.737C230.935 28.3678 231.059 28.2268 231.059 28.0621C231.061 27.9961 231.048 27.9304 231.022 27.87C230.996 27.8096 230.957 27.7561 230.908 27.7135C230.739 27.6223 230.548 27.5831 230.358 27.6007C230.156 27.5975 229.954 27.6134 229.756 27.648V29.2669H230.097V28.6036H230.289C230.5 28.6036 230.607 28.6882 230.638 28.8788C230.647 28.9127 230.656 28.9465 230.663 28.9804C230.681 29.0801 230.713 29.1767 230.758 29.2669H231.125C231.071 29.1416 231.034 29.0096 231.015 28.8743C230.975 28.6543 230.887 28.5347 230.736 28.4761ZM230.296 28.3633H230.105V27.8613H230.117C230.186 27.8452 230.256 27.838 230.327 27.8398C230.555 27.8398 230.686 27.938 230.686 28.1083C230.686 28.2787 230.547 28.3576 230.299 28.3576L230.296 28.3633ZM231.017 28.8721C230.968 28.6566 230.884 28.5404 230.733 28.4817H230.722V28.4287H230.734C230.932 28.3678 231.055 28.2268 231.055 28.0621C231.057 27.9961 231.045 27.9304 231.019 27.87C230.993 27.8096 230.954 27.7561 230.904 27.7135C230.736 27.6223 230.544 27.5831 230.354 27.6007C230.153 27.5975 229.951 27.6134 229.752 27.648V29.2669H230.093V28.6036H230.286C230.496 28.6036 230.604 28.6882 230.635 28.8788C230.644 28.9127 230.652 28.9465 230.66 28.9804C230.678 29.0801 230.71 29.1767 230.755 29.2669H231.121C231.07 29.1387 231.036 29.004 231.02 28.8664L231.017 28.8721ZM230.296 28.3633H230.105V27.8613H230.117C230.186 27.8452 230.256 27.838 230.327 27.8398C230.555 27.8398 230.686 27.938 230.686 28.1083C230.686 28.2787 230.547 28.3576 230.299 28.3576L230.296 28.3633ZM231.017 28.8721C230.968 28.6566 230.884 28.5404 230.733 28.4817H230.722V28.4287H230.734C230.932 28.3678 231.055 28.2268 231.055 28.0621C231.057 27.9961 231.045 27.9304 231.019 27.87C230.993 27.8096 230.954 27.7561 230.904 27.7135C230.736 27.6223 230.544 27.5831 230.354 27.6007C230.153 27.5975 229.951 27.6134 229.752 27.648V29.2669H230.093V28.6036H230.286C230.496 28.6036 230.604 28.6882 230.635 28.8788C230.644 28.9127 230.652 28.9465 230.66 28.9804C230.678 29.0801 230.71 29.1767 230.755 29.2669H231.121C231.07 29.1387 231.036 29.004 231.02 28.8664L231.017 28.8721ZM230.296 28.3633H230.105V27.8613H230.117C230.186 27.8452 230.256 27.838 230.327 27.8398C230.555 27.8398 230.686 27.938 230.686 28.1083C230.686 28.2787 230.547 28.3576 230.299 28.3576L230.296 28.3633ZM231.017 28.8721C230.968 28.6566 230.884 28.5404 230.733 28.4817H230.722V28.4287H230.734C230.932 28.3678 231.055 28.2268 231.055 28.0621C231.057 27.9961 231.045 27.9304 231.019 27.87C230.993 27.8096 230.954 27.7561 230.904 27.7135C230.736 27.6223 230.544 27.5831 230.354 27.6007C230.153 27.5975 229.951 27.6134 229.752 27.648V29.2669H230.093V28.6036H230.286C230.496 28.6036 230.604 28.6882 230.635 28.8788C230.644 28.9127 230.652 28.9465 230.66 28.9804C230.678 29.0801 230.71 29.1767 230.755 29.2669H231.121C231.07 29.1387 231.036 29.004 231.02 28.8664L231.017 28.8721ZM230.296 28.3633H230.105V27.8613H230.117C230.186 27.8452 230.256 27.838 230.327 27.8398C230.555 27.8398 230.686 27.938 230.686 28.1083C230.686 28.2787 230.547 28.3576 230.299 28.3576L230.296 28.3633ZM231.017 28.8721C230.968 28.6566 230.884 28.5404 230.733 28.4817H230.722V28.4287H230.734C230.932 28.3678 231.055 28.2268 231.055 28.0621C231.057 27.9961 231.045 27.9304 231.019 27.87C230.993 27.8096 230.954 27.7561 230.904 27.7135C230.736 27.6223 230.544 27.5831 230.354 27.6007C230.153 27.5975 229.951 27.6134 229.752 27.648V29.2669H230.093V28.6036H230.286C230.496 28.6036 230.604 28.6882 230.635 28.8788C230.644 28.9127 230.652 28.9465 230.66 28.9804C230.678 29.0801 230.71 29.1767 230.755 29.2669H231.121C231.07 29.1387 231.036 29.004 231.02 28.8664L231.017 28.8721ZM230.296 28.3633H230.105V27.8613H230.117C230.186 27.8452 230.256 27.838 230.327 27.8398C230.555 27.8398 230.686 27.938 230.686 28.1083C230.686 28.2787 230.547 28.3576 230.299 28.3576L230.296 28.3633Z" fill="#424243"/>
</g>
<defs>
<clipPath id="clip0_2847_4483">
<rect width="232" height="40" fill="white"/>
</clipPath>
</defs>
</svg>
